
      <svg data-logo="logo" xmlns="http://www.w3.org/2000/svg" viewBox="0 0 222 43">
        <g id="logogram" transform="translate(0, 1) rotate(0) "><path d="M0 24.9721C0 22.9632 0.395671 20.9739 1.16447 19.118C1.93328 17.2619 3.06009 15.5755 4.48064 14.155C5.90118 12.7344 7.58755 11.6076 9.44355 10.8388C11.2996 10.0701 13.2889 9.67435 15.2979 9.67435V24.9721H0Z" fill="#442781"/><path d="M0 24.9721C0 26.9811 0.395671 28.9704 1.16447 30.8264C1.93328 32.6824 3.06009 34.3688 4.48064 35.7894C5.90118 37.2099 7.58755 38.3368 9.44355 39.1056C11.2996 39.8744 13.2889 40.27 15.2979 40.27V24.9721H0Z" fill="#61459C"/><path d="M30.5955 24.9721C30.5955 26.9811 30.2001 28.9704 29.4314 30.8264C28.6626 32.6824 27.5358 34.3688 26.115 35.7894C24.6945 37.2099 23.0081 38.3368 21.152 39.1056C19.2961 39.8744 17.3067 40.27 15.2979 40.27V24.9721H30.5955Z" fill="#A992DB"/><path d="M40.0277 11.7562C40.0277 18.0999 34.885 23.2424 28.5414 23.2424H17.0553V11.7562C17.0553 5.41257 22.1979 0.269989 28.5414 0.269989C34.885 0.269989 40.0277 5.41257 40.0277 11.7562Z" fill="#FF7917"/></g>
        <g id="logotype" transform="translate(47, 9)"><path fill="#442781" d="M14.47 25L8.38 25L8.38 0.15L19.76 0.15Q22.52 0.15 24.57 1.06Q26.62 1.97 27.74 3.63Q28.86 5.29 28.86 7.53L28.86 7.53Q28.86 9.28 28.16 10.61Q27.46 11.94 26.21 12.80Q24.97 13.66 23.26 13.94L23.26 13.94L23.15 13.59Q25.71 13.59 27.02 14.67Q28.33 15.76 28.47 17.93L28.47 17.93L29.07 25L22.84 25L22.45 18.95Q22.35 17.54 21.63 16.88Q20.91 16.21 19.13 16.21L19.13 16.21L14.47 16.21L14.47 25ZM14.47 5.12L14.47 11.24L18.81 11.24Q20.66 11.24 21.65 10.44Q22.63 9.63 22.63 8.16L22.63 8.16Q22.63 6.66 21.63 5.89Q20.63 5.12 18.74 5.12L18.74 5.12L14.47 5.12ZM39.95 25.42L39.95 25.42Q37.01 25.42 34.80 24.20Q32.60 22.97 31.38 20.77Q30.15 18.56 30.15 15.58L30.15 15.58Q30.15 12.61 31.38 10.42Q32.60 8.23 34.79 6.99Q36.98 5.75 39.92 5.75L39.92 5.75Q42.86 5.75 45.01 6.99Q47.16 8.23 48.31 10.54Q49.47 12.85 49.47 16.04L49.47 16.04L49.47 17.16L36.38 17.16Q36.48 19.12 37.48 20.08Q38.48 21.04 40.05 21.04L40.05 21.04Q41.25 21.04 42.05 20.57Q42.86 20.10 43.20 19.02L43.20 19.02L49.23 19.36Q48.45 22.30 45.97 23.86Q43.48 25.42 39.95 25.42ZM36.38 13.73L36.38 13.73L43.38 13.73Q43.31 11.87 42.37 10.95Q41.42 10.02 39.92 10.02L39.92 10.02Q38.48 10.02 37.52 11.00Q36.55 11.98 36.38 13.73ZM59.83 25.42L59.83 25.42Q56.79 25.42 54.76 24.60Q52.73 23.77 51.66 22.34Q50.59 20.91 50.45 19.09L50.45 19.09L56.54 18.88Q56.75 20.13 57.56 20.77Q58.36 21.39 59.87 21.39L59.87 21.39Q61.09 21.39 61.76 20.99Q62.42 20.59 62.42 19.79L62.42 19.79Q62.42 19.23 62.16 18.88Q61.90 18.52 61.14 18.24Q60.39 17.96 58.92 17.72L58.92 17.72Q55.84 17.23 54.09 16.51Q52.34 15.79 51.62 14.67Q50.91 13.55 50.91 11.87L50.91 11.87Q50.91 9.11 53.09 7.43Q55.28 5.75 59.73 5.75L59.73 5.75Q62.49 5.75 64.36 6.59Q66.24 7.43 67.27 8.92Q68.30 10.40 68.55 12.36L68.55 12.36L62.56 12.57Q62.46 11.70 62.07 11.07Q61.69 10.44 61.09 10.11Q60.50 9.77 59.66 9.77L59.66 9.77Q58.47 9.77 57.78 10.28Q57.10 10.79 57.10 11.66L57.10 11.66Q57.10 12.26 57.40 12.66Q57.70 13.06 58.40 13.31Q59.10 13.55 60.29 13.73L60.29 13.73Q63.33 14.11 65.15 14.87Q66.97 15.62 67.79 16.79Q68.62 17.96 68.62 19.64L68.62 19.64Q68.62 21.50 67.55 22.80Q66.48 24.09 64.52 24.75Q62.56 25.42 59.83 25.42ZM76.74 25.42L76.74 25.42Q73.80 25.42 72.17 23.55Q70.54 21.68 70.54 18.31L70.54 18.31L70.54 6.17L76.56 6.17L76.56 16.91Q76.56 18.91 77.14 19.82Q77.72 20.73 78.98 20.73L78.98 20.73Q80.38 20.73 81.13 19.73Q81.88 18.73 81.88 16.60L81.88 16.60L81.88 6.17L87.90 6.17L87.90 25L82.48 25L82.30 19.33L83.00 19.43Q82.65 22.45 81.08 23.93Q79.50 25.42 76.74 25.42ZM97.25 25L91.16 25L91.16 0.15L99.21 0.15L105.02 17.09L110.79 0.15L118.84 0.15L118.84 25L112.75 25L112.75 9.95L107.33 24.93L102.64 24.93L97.25 9.95L97.25 25ZM127.73 25.42L127.73 25.42Q124.79 25.42 122.90 24.05Q121.01 22.69 121.01 20.27L121.01 20.27Q121.01 17.79 122.62 16.42Q124.23 15.06 127.31 14.43L127.31 14.43L133.16 13.24Q133.16 11.59 132.44 10.74Q131.72 9.88 130.39 9.88L130.39 9.88Q129.06 9.88 128.31 10.53Q127.56 11.17 127.35 12.36L127.35 12.36L121.33 12.15Q121.89 8.90 124.23 7.32Q126.58 5.75 130.39 5.75L130.39 5.75Q134.80 5.75 136.99 7.74Q139.18 9.74 139.18 13.69L139.18 13.69L139.18 19.64Q139.18 20.52 139.47 20.80Q139.77 21.08 140.30 21.08L140.30 21.08L140.75 21.08L140.75 25Q140.47 25.11 139.84 25.18Q139.21 25.25 138.62 25.25L138.62 25.25Q137.53 25.25 136.52 24.88Q135.50 24.51 134.84 23.55Q134.17 22.59 134.17 20.77L134.17 20.77L134.63 21.22Q134.28 22.48 133.38 23.44Q132.49 24.41 131.09 24.91Q129.69 25.42 127.73 25.42ZM129.31 21.50L129.31 21.50Q130.43 21.50 131.30 21.04Q132.18 20.59 132.67 19.71Q133.16 18.84 133.16 17.54L133.16 17.54L133.16 16.77L129.52 17.61Q128.43 17.86 127.82 18.37Q127.21 18.88 127.21 19.71L127.21 19.71Q127.21 20.55 127.73 21.03Q128.26 21.50 129.31 21.50ZM154.44 25L149.36 25Q146.32 25 144.90 23.58Q143.48 22.16 143.48 19.05L143.48 19.05L143.48 1.76L149.50 1.76L149.50 18.28Q149.50 19.64 150.08 20.15Q150.66 20.66 151.85 20.66L151.85 20.66L154.44 20.66L154.44 25ZM154.44 10.51L140.37 10.51L140.37 6.17L154.44 6.17L154.44 10.51ZM164.76 25.42L164.76 25.42Q161.82 25.42 159.62 24.20Q157.41 22.97 156.19 20.77Q154.96 18.56 154.96 15.58L154.96 15.58Q154.96 12.61 156.19 10.42Q157.41 8.23 159.60 6.99Q161.79 5.75 164.73 5.75L164.73 5.75Q167.67 5.75 169.82 6.99Q171.97 8.23 173.13 10.54Q174.28 12.85 174.28 16.04L174.28 16.04L174.28 17.16L161.19 17.16Q161.30 19.12 162.29 20.08Q163.29 21.04 164.87 21.04L164.87 21.04Q166.06 21.04 166.86 20.57Q167.67 20.10 168.02 19.02L168.02 19.02L174.04 19.36Q173.27 22.30 170.78 23.86Q168.30 25.42 164.76 25.42ZM161.19 13.73L161.19 13.73L168.19 13.73Q168.12 11.87 167.18 10.95Q166.23 10.02 164.73 10.02L164.73 10.02Q163.29 10.02 162.33 11.00Q161.37 11.98 161.19 13.73Z"/></g>
        
      </svg>
    